Simulation
nRows=20
nColumns=15
endheader
time  TH_x TH_y TH_z SC_y  SC_z  SC_x  AC_y  AC_z  AC_x  GH_y  GH_z  GH_yy  EL_x  PS_y
0.0  0.000000  0.000000  0.000000  -30.18914732857896  0.15287058870691952  2.978718102829862  54.05169693748009  4.289482053918335  -8.4087115379758  84.88671276920284  1.7662767078322243  -58.165081915344686  22.58445903195027  0.000000
0.031  0.000000  0.000000  0.000000  -30.089193755399993  0.04931446774891812  3.58844275175733  53.84039801050716  3.755806328707789  -9.054204682339167  82.84502704217361  1.8625892732872549  -55.998529012655275  22.630366346432037  0.000000
0.062  0.000000  0.000000  0.000000  -29.983711366029738  -0.05340639448777881  4.178916968346915  53.64383301443584  3.2435704186746612  -9.680133168476221  80.79934942839093  1.9645605695046275  -53.83390754536902  22.651779589475  0.000000
0.093  0.000000  0.000000  0.000000  -29.900846130232466  -0.15403596840497086  4.7525748412427244  53.470612641250646  2.759899687667546  -10.275148596229531  78.73093089392466  2.1071538969354813  -51.6872970092946  22.63209435349222  0.000000
0.124  0.000000  0.000000  0.000000  -29.838928210624246  -0.25109171332828545  5.312734406632064  53.32883399384931  2.3088827760189776  -10.834640749545878  76.62891454965717  2.317275787809255  -49.5667657183305  22.563729799340667  0.000000
0.155  0.000000  0.000000  0.000000  -29.80408322651867  -0.3429127541553343  5.861430613503462  53.220952291994024  1.891201614516942  -11.355151220502528  74.48062026350345  2.6191278159854954  -47.48253719612885  22.446894029609176  0.000000
0.186  0.000000  0.000000  0.000000  -29.797554329533742  -0.42892880909839265  6.398621460702881  53.14602272290947  1.5049537588672193  -11.836236273432108  72.27638086881575  3.0292053006952777  -45.442695274797686  22.28373792815767  0.000000
0.217  0.000000  0.000000  0.000000  -29.823199557752815  -0.5081614000703855  6.921640157250863  53.099778288354045  1.1473824202852287  -12.27882401539916  70.01031721553176  3.5553797770010855  -43.45279059850299  22.081748285726906  0.000000
0.248  0.000000  0.000000  0.000000  -29.876414184886645  -0.5772141498406429  7.424308360008756  53.072281931535464  0.8153527816294931  -12.68427277021431  67.6793614291506  4.193328762004042  -41.517410617247734  21.85826003858446  0.000000
0.279  0.000000  0.000000  0.000000  -29.942308190520258  -0.6306449957415279  7.898321104682596  53.05205841523472  0.5087694765019599  -13.052508184784928  65.28658599457954  4.925966548879251  -39.63718715245492  21.640601524935185  0.000000
0.31  0.000000  0.000000  0.000000  -30.004333336840556  -0.6633120263933588  8.333083929569145  53.03043445255806  0.23022342459512757  -13.379302148498994  62.83815341212936  5.732717210059977  -37.81248411909959  21.457176189667567  0.000000
0.34099999999999997  0.000000  0.000000  0.000000  -30.05789426605967  -0.674449230993667  8.71733030962576  53.008565117862105  -0.018273476716525416  -13.655339621524478  60.34200633107327  6.60237191938099  -36.045536052433214  21.322932358176566  0.000000
0.372  0.000000  0.000000  0.000000  -30.112312565742542  -0.6693496255786633  9.041790883853059  52.99762577904336  -0.23845161278468774  -13.868346790852307  57.807224630402494  7.538360529717478  -34.3417321668569  21.235121851013943  0.000000
0.403  0.000000  0.000000  0.000000  -30.18211374350304  -0.6565676207891818  9.301347987615856  53.013652460532064  -0.43507253233937215  -14.006496611614008  55.24471046566549  8.553208149025611  -32.70863584215038  21.18118818162354  0.000000
0.434  0.000000  0.000000  0.000000  -30.276123121826476  -0.6432316437581754  9.495276600466557  53.069124569863845  -0.6105697223627056  -14.063421384427128  52.67005420442774  9.658852342977674  -31.15180261365555  21.151994242166463  0.000000
0.46499999999999997  0.000000  0.000000  0.000000  -30.392108832795202  -0.6298539082318168  9.626600631112218  53.16656628560034  -0.7603097238963153  -14.040141506567263  50.10786625960942  10.859245862559177  -29.669115326249116  21.14716158068077  0.000000
0.496  0.000000  0.000000  0.000000  -30.521497716136064  -0.6089321012681493  9.69924921990256  53.29766137038218  -0.8729660187271729  -13.943371853839126  47.590962319529076  12.151366720783965  -28.252005260687085  21.171693994148278  0.000000
0.527  0.000000  0.000000  0.000000  -30.656002329960444  -0.5708660628918192  9.718343798980365  53.447988524610075  -0.9363823685110226  -13.784003878077481  45.15526783383169  13.530226482650601  -26.89199674640608  21.22625011537596  0.000000
0.558  0.000000  0.000000  0.000000  -30.79085403889545  -0.5091209347259055  9.692619059553657  53.60373190408643  -0.9446836729077062  -13.574523231507658  42.83446830035147  14.99246025010487  -25.587572538297128  21.30230028800875  0.000000
0.589  0.000000  0.000000  0.000000  -30.925735851086092  -0.42067134387601235  9.636072905309963  53.756218580585426  -0.9012952136795197  -13.328401554171064  40.65681480139332  16.537745423804676  -24.34700233894659  21.388090176355043  0.000000
